<?xml version="1.0" encoding="UTF-8"?>
<svg xmlns="http://www.w3.org/2000/svg" xmlns:xlink="http://www.w3.org/1999/xlink" width="160px" height="30px" viewBox="0 0 160 30" version="1.1">
<g id="surface1">
<path style=" stroke:none;fill-rule:nonzero;fill:rgb(99.607843%,99.607843%,99.607843%);fill-opacity:1;" d="M 0 0 C 52.800781 0 105.601562 0 160 0 C 160 9.898438 160 19.800781 160 30 C 107.199219 30 54.398438 30 0 30 C 0 20.101562 0 10.199219 0 0 Z M 0 0 "/>
<path style=" stroke:none;fill-rule:nonzero;fill:rgb(4.313726%,4.705882%,4.705882%);fill-opacity:1;" d="M 66.007812 10.628906 C 66.703125 10.636719 67.402344 10.636719 68.097656 10.640625 C 69.460938 10.644531 70.824219 10.652344 72.1875 10.664062 C 72.222656 10.691406 72.261719 10.722656 72.300781 10.75 C 74.355469 12.351562 74.355469 12.351562 76.433594 13.953125 C 76.503906 14.007812 76.574219 14.058594 76.640625 14.113281 C 76.929688 14.332031 77.222656 14.554688 77.511719 14.777344 C 77.867188 15.046875 78.21875 15.316406 78.574219 15.585938 C 78.734375 15.710938 78.898438 15.835938 79.0625 15.960938 C 79.214844 16.078125 79.367188 16.195312 79.519531 16.3125 C 79.578125 16.355469 79.636719 16.398438 79.691406 16.441406 C 79.773438 16.503906 79.851562 16.5625 79.929688 16.625 C 79.972656 16.65625 80.015625 16.691406 80.0625 16.726562 C 80.15625 16.816406 80.15625 16.816406 80.15625 16.960938 C 76.289062 16.960938 72.421875 16.960938 68.4375 16.960938 C 67.65625 16.054688 67.65625 16.054688 67.65625 15.964844 C 63.53125 15.976562 59.40625 15.984375 55.15625 15.996094 C 54.539062 16.226562 53.917969 16.460938 53.28125 16.699219 C 53.023438 16.785156 52.765625 16.875 52.5 16.960938 C 48.789062 16.960938 45.074219 16.960938 41.25 16.960938 C 42.308594 16.566406 42.308594 16.566406 42.890625 16.386719 C 43.550781 16.179688 44.179688 15.96875 44.804688 15.761719 C 45.625 15.484375 46.464844 15.210938 47.316406 14.9375 C 47.933594 14.738281 48.539062 14.539062 49.140625 14.339844 C 49.921875 14.082031 50.71875 13.820312 51.527344 13.5625 C 52.148438 13.363281 52.757812 13.164062 53.359375 12.964844 C 54.132812 12.707031 54.921875 12.449219 55.722656 12.195312 C 56.503906 11.941406 57.277344 11.691406 58.046875 11.441406 C 58.230469 11.382812 58.421875 11.320312 58.617188 11.261719 C 58.851562 11.179688 58.980469 11.117188 59.113281 11.03125 C 60.105469 10.476562 63.453125 10.609375 66.007812 10.628906 Z M 66.007812 10.628906 "/>
<path style=" stroke:none;fill-rule:nonzero;fill:rgb(4.313726%,4.705882%,4.705882%);fill-opacity:1;" d="M 131.035156 10.507812 C 131.242188 10.507812 131.445312 10.507812 131.65625 10.507812 C 135.601562 10.519531 140.003906 10.675781 142.882812 11.226562 C 144.921875 11.652344 145.15625 12.058594 145.15625 12.625 C 141.90625 12.625 138.660156 12.625 135.3125 12.625 C 135.15625 12.511719 135.003906 12.394531 134.84375 12.273438 C 134.269531 12.128906 133.398438 12.039062 132.460938 11.996094 C 130.605469 11.941406 128.929688 11.960938 127.34375 12.15625 C 126.816406 12.257812 126.726562 12.308594 126.679688 12.449219 C 126.695312 12.550781 126.746094 12.628906 127.03125 12.714844 C 127.289062 12.734375 127.550781 12.753906 127.8125 12.773438 C 127.933594 12.785156 128.054688 12.792969 128.179688 12.804688 C 129.761719 12.9375 131.421875 13.019531 133.085938 13.109375 C 141.289062 13.546875 141.289062 13.546875 143.085938 14.109375 C 144.148438 14.492188 144.285156 14.957031 143.664062 15.375 C 143.507812 15.464844 143.324219 15.554688 143.125 15.644531 C 143.066406 15.671875 143.003906 15.699219 142.941406 15.726562 C 142.480469 15.917969 141.824219 16.074219 141.09375 16.230469 C 141.015625 16.25 140.933594 16.265625 140.851562 16.285156 C 138.066406 16.859375 133.359375 17.089844 129.375 17.140625 C 126.480469 17.160156 123.585938 17.175781 120.78125 17.023438 C 120.675781 17.015625 120.570312 17.011719 120.460938 17.003906 C 117.644531 16.855469 115.125 16.59375 113.59375 16.113281 C 112.53125 15.722656 112.5 15.421875 112.5 14.96875 C 115.902344 14.96875 119.304688 14.96875 122.8125 14.96875 C 122.96875 15.128906 122.96875 15.128906 123.125 15.292969 C 123.542969 15.457031 124.136719 15.542969 125 15.617188 C 127.128906 15.746094 129.328125 15.746094 131.40625 15.578125 C 132.015625 15.515625 132.523438 15.457031 132.84375 15.339844 C 132.984375 15.21875 132.988281 15.144531 132.8125 15.03125 C 131.722656 14.792969 129.863281 14.722656 128.3125 14.640625 C 127.972656 14.621094 127.628906 14.601562 127.285156 14.582031 C 126.316406 14.527344 125.34375 14.472656 124.367188 14.421875 C 121.3125 14.257812 118.34375 14.054688 116.625 13.515625 C 115.535156 13.09375 115.496094 12.621094 116.199219 12.179688 C 116.78125 11.871094 117.589844 11.609375 118.75 11.367188 C 118.832031 11.347656 118.910156 11.332031 118.996094 11.3125 C 120.628906 10.976562 123.117188 10.769531 125.390625 10.640625 C 125.542969 10.632812 125.542969 10.632812 125.699219 10.625 C 127.453125 10.53125 129.21875 10.507812 131.035156 10.507812 Z M 131.035156 10.507812 "/>
<path style=" stroke:none;fill-rule:nonzero;fill:rgb(3.921569%,4.705882%,4.313726%);fill-opacity:1;" d="M 14.6875 10.664062 C 26.03125 10.664062 37.375 10.664062 49.0625 10.664062 C 48.644531 11.191406 48.175781 11.71875 47.65625 12.246094 C 43.839844 12.246094 40.023438 12.246094 36.09375 12.246094 C 36.042969 12.363281 35.992188 12.476562 35.9375 12.597656 C 35.855469 12.695312 35.769531 12.789062 35.667969 12.886719 C 35.644531 12.914062 35.617188 12.941406 35.589844 12.96875 C 35.53125 13.027344 35.472656 13.085938 35.414062 13.140625 C 35.253906 13.300781 35.097656 13.460938 34.9375 13.621094 C 34.90625 13.652344 34.871094 13.6875 34.835938 13.722656 C 34.453125 14.109375 34.09375 14.496094 33.730469 14.886719 C 33.601562 15.027344 33.46875 15.167969 33.339844 15.304688 C 33.308594 15.339844 33.277344 15.375 33.246094 15.410156 C 32.96875 15.703125 32.6875 16 32.40625 16.296875 C 32.359375 16.347656 32.3125 16.394531 32.265625 16.445312 C 32.203125 16.511719 32.136719 16.578125 32.074219 16.644531 C 32.039062 16.679688 32.003906 16.714844 31.96875 16.753906 C 31.898438 16.824219 31.8125 16.894531 31.71875 16.960938 C 27.953125 16.960938 24.191406 16.960938 20.3125 16.960938 C 21.410156 15.761719 21.410156 15.761719 21.914062 15.238281 C 21.941406 15.210938 21.972656 15.179688 22 15.148438 C 22.550781 14.578125 23.113281 14.007812 23.679688 13.433594 C 23.710938 13.402344 23.742188 13.371094 23.773438 13.339844 C 23.832031 13.28125 23.886719 13.226562 23.945312 13.167969 C 24.25 12.859375 24.546875 12.554688 24.84375 12.246094 C 21.027344 12.246094 17.210938 12.246094 13.28125 12.246094 C 13.65625 11.714844 14.183594 11.191406 14.6875 10.664062 Z M 14.6875 10.664062 "/>
<path style=" stroke:none;fill-rule:nonzero;fill:rgb(92.54902%,11.372549%,10.980392%);fill-opacity:1;" d="M 88.710938 17.507812 C 88.90625 17.507812 89.097656 17.507812 89.296875 17.507812 C 101.722656 17.507812 114.070312 17.628906 126.367188 17.976562 C 126.703125 17.988281 127.035156 17.996094 127.371094 18.007812 C 132.445312 18.148438 137.492188 18.335938 142.5 18.546875 C 142.5 18.554688 142.5 18.5625 142.5 18.574219 C 141.410156 18.558594 140.324219 18.539062 139.238281 18.515625 C 135.503906 18.429688 131.769531 18.375 128.015625 18.332031 C 127.90625 18.332031 127.796875 18.332031 127.683594 18.328125 C 126.113281 18.3125 124.539062 18.296875 122.96875 18.28125 C 122.800781 18.28125 122.636719 18.277344 122.464844 18.277344 C 118.640625 18.238281 114.804688 18.246094 110.976562 18.246094 C 110.796875 18.246094 110.617188 18.246094 110.433594 18.246094 C 97.117188 18.246094 83.851562 18.382812 70.660156 18.742188 C 70.3125 18.75 69.960938 18.757812 69.613281 18.769531 C 58.992188 19.046875 48.082031 19.457031 38.171875 20.25 C 37.539062 20.292969 37.109375 20.25 36.507812 20.203125 C 36.308594 20.183594 36.109375 20.167969 35.910156 20.152344 C 30.863281 19.726562 25.246094 19.574219 19.84375 19.394531 C 20.355469 19.332031 20.867188 19.296875 21.441406 19.257812 C 21.613281 19.246094 21.613281 19.246094 21.789062 19.234375 C 22.167969 19.210938 22.550781 19.1875 22.929688 19.160156 C 23.0625 19.152344 23.191406 19.144531 23.328125 19.136719 C 36.035156 18.324219 49.328125 17.921875 88.710938 17.507812 Z M 88.710938 17.507812 "/>
<path style=" stroke:none;fill-rule:nonzero;fill:rgb(3.921569%,4.705882%,4.313726%);fill-opacity:1;" d="M 81.71875 10.664062 C 92.390625 10.664062 103.066406 10.664062 114.0625 10.664062 C 113.957031 10.863281 113.832031 11.054688 113.65625 11.253906 C 113.621094 11.292969 113.621094 11.292969 113.585938 11.332031 C 113.535156 11.390625 113.484375 11.445312 113.4375 11.5 C 113.359375 11.585938 113.28125 11.671875 113.207031 11.757812 C 113.160156 11.8125 113.109375 11.867188 113.0625 11.921875 C 113.039062 11.949219 113.015625 11.972656 112.992188 12 C 112.832031 12.179688 112.832031 12.179688 112.65625 12.246094 C 109.304688 12.253906 105.953125 12.265625 102.5 12.273438 C 102.027344 12.78125 102.027344 12.78125 101.554688 13.289062 C 101.226562 13.644531 100.886719 13.996094 100.53125 14.347656 C 100.039062 14.839844 99.585938 15.328125 99.148438 15.820312 C 99.050781 15.925781 98.957031 16.035156 98.859375 16.140625 C 98.613281 16.414062 98.367188 16.6875 98.125 16.960938 C 94.464844 16.960938 90.804688 16.960938 87.03125 16.960938 C 87.207031 16.601562 87.207031 16.601562 87.359375 16.441406 C 87.394531 16.40625 87.429688 16.371094 87.464844 16.332031 C 87.5 16.292969 87.539062 16.253906 87.574219 16.214844 C 87.617188 16.175781 87.65625 16.132812 87.695312 16.089844 C 87.800781 15.980469 87.910156 15.867188 88.019531 15.753906 C 88.132812 15.636719 88.246094 15.519531 88.355469 15.402344 C 88.5 15.253906 88.640625 15.105469 88.78125 14.957031 C 89.125 14.601562 89.460938 14.246094 89.800781 13.890625 C 89.847656 13.839844 89.894531 13.789062 89.941406 13.738281 C 90.121094 13.546875 90.304688 13.355469 90.484375 13.164062 C 90.589844 13.050781 90.695312 12.941406 90.804688 12.828125 C 90.839844 12.789062 90.878906 12.746094 90.917969 12.707031 C 90.972656 12.652344 91.023438 12.59375 91.078125 12.539062 C 91.109375 12.507812 91.136719 12.476562 91.167969 12.445312 C 91.234375 12.378906 91.320312 12.3125 91.40625 12.246094 C 87.746094 12.246094 84.085938 12.246094 80.3125 12.246094 C 80.414062 12.039062 80.523438 11.839844 80.71875 11.640625 C 80.742188 11.613281 80.765625 11.589844 80.789062 11.5625 C 80.839844 11.507812 80.890625 11.457031 80.9375 11.402344 C 81.015625 11.324219 81.09375 11.242188 81.167969 11.160156 C 81.214844 11.109375 81.265625 11.058594 81.3125 11.003906 C 81.335938 10.980469 81.359375 10.957031 81.382812 10.933594 C 81.46875 10.839844 81.5625 10.753906 81.71875 10.664062 Z M 81.71875 10.664062 "/>
<path style=" stroke:none;fill-rule:nonzero;fill:rgb(98.823529%,98.823529%,98.823529%);fill-opacity:1;" d="M 64.6875 12.539062 C 64.738281 12.539062 64.789062 12.539062 64.84375 12.539062 C 64.875 12.578125 64.875 12.578125 64.902344 12.617188 C 64.996094 12.742188 65.089844 12.867188 65.1875 12.992188 C 65.203125 13.015625 65.21875 13.035156 65.238281 13.058594 C 65.535156 13.449219 65.84375 13.839844 66.167969 14.230469 C 66.199219 14.269531 66.230469 14.308594 66.261719 14.347656 C 66.304688 14.398438 66.304688 14.398438 66.347656 14.449219 C 66.40625 14.53125 66.40625 14.53125 66.40625 14.617188 C 63.984375 14.617188 61.558594 14.617188 59.0625 14.617188 C 59.972656 14.257812 60.894531 13.902344 61.875 13.546875 C 61.992188 13.503906 62.109375 13.460938 62.226562 13.417969 C 63.035156 13.125 63.859375 12.832031 64.6875 12.539062 Z M 64.6875 12.539062 "/>
<path style=" stroke:none;fill-rule:nonzero;fill:rgb(0.392157%,0.392157%,0.392157%);fill-opacity:1;" d="M 135.3125 12.453125 C 135.46875 12.464844 135.46875 12.464844 135.625 12.480469 C 135.625 12.507812 135.625 12.539062 135.625 12.570312 C 138.667969 12.570312 141.710938 12.570312 144.84375 12.570312 C 144.894531 12.53125 144.945312 12.492188 145 12.453125 C 145.050781 12.453125 145.101562 12.453125 145.15625 12.453125 C 145.15625 12.507812 145.15625 12.566406 145.15625 12.625 C 141.90625 12.625 138.660156 12.625 135.3125 12.625 C 135.3125 12.570312 135.3125 12.511719 135.3125 12.453125 Z M 135.3125 12.453125 "/>
<path style=" stroke:none;fill-rule:nonzero;fill:rgb(91.37255%,11.764706%,10.980392%);fill-opacity:1;" d="M 142.5 18.546875 C 142.5 18.554688 142.5 18.5625 142.5 18.574219 C 141.378906 18.558594 140.257812 18.539062 139.140625 18.515625 C 139.019531 18.515625 138.898438 18.511719 138.773438 18.511719 C 138.1875 18.5 137.691406 18.488281 137.1875 18.429688 C 138.941406 18.351562 140.789062 18.46875 142.5 18.546875 Z M 142.5 18.546875 "/>
<path style=" stroke:none;fill-rule:nonzero;fill:rgb(92.54902%,7.843138%,7.058824%);fill-opacity:1;" d="M 130.625 18.132812 C 130.925781 18.140625 131.222656 18.144531 131.523438 18.148438 C 131.773438 18.152344 131.773438 18.152344 132.027344 18.15625 C 132.410156 18.164062 132.757812 18.171875 133.125 18.195312 C 133.125 18.210938 133.125 18.230469 133.125 18.25 C 132.589844 18.320312 132.347656 18.316406 131.71875 18.3125 C 131.71875 18.28125 131.71875 18.253906 131.71875 18.222656 C 131.359375 18.203125 130.996094 18.183594 130.625 18.164062 C 130.625 18.15625 130.625 18.144531 130.625 18.132812 Z M 130.625 18.132812 "/>
<path style=" stroke:none;fill-rule:nonzero;fill:rgb(91.37255%,7.843138%,7.450981%);fill-opacity:1;" d="M 22.1875 19.277344 C 21.980469 19.304688 21.773438 19.335938 21.5625 19.367188 C 21.613281 19.382812 21.664062 19.402344 21.71875 19.421875 C 21.496094 19.425781 21.269531 19.425781 21.046875 19.425781 C 20.917969 19.429688 20.792969 19.429688 20.664062 19.429688 C 20.3125 19.421875 20.3125 19.421875 19.84375 19.367188 C 20.144531 19.34375 20.449219 19.324219 20.75 19.304688 C 20.921875 19.292969 21.089844 19.28125 21.261719 19.269531 C 21.71875 19.25 21.71875 19.25 22.1875 19.277344 Z M 22.1875 19.277344 "/>
<path style=" stroke:none;fill-rule:nonzero;fill:rgb(92.54902%,11.372549%,10.588235%);fill-opacity:1;" d="M 134.84375 18.28125 C 135.152344 18.28125 135.460938 18.28125 135.78125 18.28125 C 135.832031 18.308594 135.882812 18.339844 135.9375 18.367188 C 135.886719 18.386719 135.835938 18.40625 135.78125 18.429688 C 134.621094 18.4375 134.621094 18.4375 134.0625 18.367188 C 134.371094 18.367188 134.679688 18.367188 135 18.367188 C 134.949219 18.339844 134.898438 18.3125 134.84375 18.28125 Z M 134.84375 18.28125 "/>
<path style=" stroke:none;fill-rule:nonzero;fill:rgb(8.235294%,8.627451%,8.627451%);fill-opacity:1;" d="M 113.75 16.085938 C 114.144531 16.15625 114.523438 16.230469 114.890625 16.304688 C 115.015625 16.332031 115.015625 16.332031 115.144531 16.355469 C 115.199219 16.375 115.253906 16.390625 115.3125 16.40625 C 115.261719 16.433594 115.210938 16.464844 115.15625 16.492188 C 114.921875 16.441406 114.6875 16.390625 114.453125 16.339844 C 114.324219 16.308594 114.191406 16.28125 114.058594 16.25 C 113.75 16.171875 113.75 16.171875 113.75 16.085938 Z M 113.75 16.085938 "/>
<path style=" stroke:none;fill-rule:nonzero;fill:rgb(7.450981%,7.450981%,7.450981%);fill-opacity:1;" d="M 132.65625 15.382812 C 132.757812 15.390625 132.863281 15.398438 132.96875 15.410156 C 132.8125 15.453125 132.8125 15.453125 132.65625 15.5 C 132.554688 15.488281 132.449219 15.480469 132.34375 15.46875 C 132.445312 15.441406 132.550781 15.410156 132.65625 15.382812 Z M 132.5 15.527344 C 132.113281 15.597656 131.765625 15.613281 131.25 15.644531 C 131.25 15.625 131.25 15.605469 131.25 15.585938 C 131.9375 15.492188 131.9375 15.492188 132.5 15.527344 Z M 132.5 15.527344 "/>
<path style=" stroke:none;fill-rule:nonzero;fill:rgb(92.156863%,3.529412%,2.745098%);fill-opacity:1;" d="M 135.625 18.3125 C 135.933594 18.3125 136.242188 18.3125 136.5625 18.3125 C 136.5625 18.328125 136.5625 18.347656 136.5625 18.367188 C 136.664062 18.386719 136.769531 18.40625 136.875 18.429688 C 136.515625 18.429688 136.152344 18.429688 135.78125 18.429688 C 135.730469 18.390625 135.679688 18.351562 135.625 18.3125 Z M 135.625 18.3125 "/>
<path style=" stroke:none;fill-rule:nonzero;fill:rgb(9.019608%,9.411765%,9.411765%);fill-opacity:1;" d="M 22.65625 14.472656 C 22.949219 14.582031 23.003906 14.621094 22.96875 14.734375 C 22.8125 14.734375 22.660156 14.734375 22.5 14.734375 C 22.550781 14.648438 22.601562 14.5625 22.65625 14.472656 Z M 22.65625 14.472656 "/>
</g>
</svg>
