<?xml version="1.0" encoding="UTF-8"?>
<svg xmlns="http://www.w3.org/2000/svg" xmlns:xlink="http://www.w3.org/1999/xlink" width="40px" height="40px" viewBox="0 0 40 40" version="1.1">
<g id="surface1">
<path style=" stroke:none;fill-rule:nonzero;fill:rgb(98.039216%,98.039216%,98.039216%);fill-opacity:1;" d="M 0 0 C 13.199219 0 26.398438 0 40 0 C 40 13.199219 40 26.398438 40 40 C 26.800781 40 13.601562 40 0 40 C 0 26.800781 0 13.601562 0 0 Z M 0 0 "/>
<path style=" stroke:none;fill-rule:nonzero;fill:rgb(98.039216%,98.039216%,98.431373%);fill-opacity:1;" d="M 24.382812 6.953125 C 24.453125 6.992188 24.527344 7.03125 24.597656 7.066406 C 25.296875 7.421875 25.9375 7.898438 26.507812 8.429688 C 26.585938 8.5 26.664062 8.566406 26.746094 8.632812 C 26.777344 8.660156 26.804688 8.683594 26.835938 8.710938 C 26.835938 8.738281 26.835938 8.761719 26.835938 8.789062 C 26.863281 8.789062 26.886719 8.789062 26.914062 8.789062 C 26.96875 8.84375 26.96875 8.84375 27.035156 8.921875 C 27.136719 9.042969 27.242188 9.164062 27.355469 9.28125 C 27.765625 9.738281 28.089844 10.25 28.398438 10.78125 C 28.414062 10.804688 28.425781 10.828125 28.441406 10.855469 C 28.859375 11.566406 29.132812 12.363281 29.335938 13.164062 C 29.347656 13.207031 29.359375 13.253906 29.371094 13.300781 C 29.785156 15.011719 29.621094 16.949219 29.023438 18.59375 C 29.011719 18.628906 29 18.660156 28.988281 18.695312 C 28.566406 19.839844 27.925781 20.886719 27.085938 21.773438 C 27.003906 21.859375 26.929688 21.949219 26.851562 22.039062 C 26.722656 22.1875 26.578125 22.320312 26.429688 22.449219 C 26.367188 22.507812 26.304688 22.5625 26.242188 22.621094 C 25.789062 23.054688 25.230469 23.398438 24.6875 23.710938 C 24.664062 23.722656 24.640625 23.738281 24.617188 23.753906 C 23.816406 24.210938 22.921875 24.53125 22.023438 24.734375 C 22 24.742188 21.972656 24.75 21.945312 24.753906 C 21.363281 24.878906 20.785156 24.898438 20.191406 24.898438 C 20.0625 24.898438 19.933594 24.898438 19.800781 24.898438 C 17.628906 24.910156 15.460938 24.082031 13.828125 22.65625 C 13.796875 22.632812 13.769531 22.605469 13.738281 22.582031 C 13.664062 22.515625 13.589844 22.449219 13.515625 22.382812 C 13.488281 22.359375 13.488281 22.359375 13.460938 22.332031 C 13.199219 22.101562 12.957031 21.867188 12.742188 21.59375 C 12.652344 21.480469 12.558594 21.371094 12.464844 21.257812 C 10.929688 19.414062 10.285156 16.894531 10.5 14.53125 C 10.6875 12.710938 11.363281 11 12.488281 9.558594 C 12.535156 9.5 12.582031 9.4375 12.625 9.375 C 12.652344 9.34375 12.675781 9.3125 12.699219 9.277344 C 12.71875 9.25 12.742188 9.222656 12.761719 9.195312 C 12.777344 9.175781 12.796875 9.160156 12.8125 9.140625 C 12.839844 9.140625 12.863281 9.140625 12.890625 9.140625 C 12.902344 9.117188 12.910156 9.09375 12.921875 9.074219 C 12.972656 8.972656 13.035156 8.90625 13.113281 8.828125 C 13.144531 8.796875 13.171875 8.769531 13.203125 8.738281 C 13.234375 8.707031 13.265625 8.675781 13.296875 8.644531 C 13.332031 8.613281 13.363281 8.582031 13.394531 8.550781 C 13.621094 8.328125 13.847656 8.121094 14.101562 7.929688 C 14.125 7.914062 14.144531 7.894531 14.167969 7.878906 C 15.46875 6.890625 16.976562 6.234375 18.59375 5.976562 C 18.621094 5.972656 18.648438 5.96875 18.679688 5.960938 C 20.605469 5.664062 22.671875 6.035156 24.382812 6.953125 Z M 24.382812 6.953125 "/>
<path style=" stroke:none;fill-rule:nonzero;fill:rgb(8.235294%,40.392157%,67.843139%);fill-opacity:1;" d="M 24.382812 6.953125 C 24.453125 6.992188 24.527344 7.03125 24.597656 7.066406 C 25.296875 7.421875 25.9375 7.898438 26.507812 8.429688 C 26.585938 8.5 26.664062 8.566406 26.746094 8.632812 C 26.777344 8.660156 26.804688 8.683594 26.835938 8.710938 C 26.835938 8.738281 26.835938 8.761719 26.835938 8.789062 C 26.863281 8.789062 26.886719 8.789062 26.914062 8.789062 C 26.96875 8.84375 26.96875 8.84375 27.035156 8.921875 C 27.136719 9.042969 27.242188 9.164062 27.355469 9.28125 C 27.765625 9.738281 28.089844 10.25 28.398438 10.78125 C 28.414062 10.804688 28.425781 10.828125 28.441406 10.855469 C 28.859375 11.566406 29.132812 12.363281 29.335938 13.164062 C 29.347656 13.207031 29.359375 13.253906 29.371094 13.300781 C 29.785156 15.011719 29.621094 16.949219 29.023438 18.59375 C 29.011719 18.628906 29 18.660156 28.988281 18.695312 C 28.566406 19.839844 27.925781 20.886719 27.085938 21.773438 C 27.003906 21.859375 26.929688 21.949219 26.851562 22.039062 C 26.722656 22.1875 26.578125 22.320312 26.429688 22.449219 C 26.367188 22.507812 26.304688 22.5625 26.242188 22.621094 C 25.789062 23.054688 25.230469 23.398438 24.6875 23.710938 C 24.664062 23.722656 24.640625 23.738281 24.617188 23.753906 C 23.816406 24.210938 22.921875 24.53125 22.023438 24.734375 C 22 24.742188 21.972656 24.75 21.945312 24.753906 C 21.363281 24.878906 20.785156 24.898438 20.191406 24.898438 C 20.0625 24.898438 19.933594 24.898438 19.800781 24.898438 C 17.628906 24.910156 15.460938 24.082031 13.828125 22.65625 C 13.796875 22.632812 13.769531 22.605469 13.738281 22.582031 C 13.664062 22.515625 13.589844 22.449219 13.515625 22.382812 C 13.488281 22.359375 13.488281 22.359375 13.460938 22.332031 C 13.199219 22.101562 12.957031 21.867188 12.742188 21.59375 C 12.652344 21.480469 12.558594 21.371094 12.464844 21.257812 C 10.929688 19.414062 10.285156 16.894531 10.5 14.53125 C 10.6875 12.710938 11.363281 11 12.488281 9.558594 C 12.535156 9.5 12.582031 9.4375 12.625 9.375 C 12.652344 9.34375 12.675781 9.3125 12.699219 9.277344 C 12.71875 9.25 12.742188 9.222656 12.761719 9.195312 C 12.777344 9.175781 12.796875 9.160156 12.8125 9.140625 C 12.839844 9.140625 12.863281 9.140625 12.890625 9.140625 C 12.902344 9.117188 12.910156 9.09375 12.921875 9.074219 C 12.972656 8.972656 13.035156 8.90625 13.113281 8.828125 C 13.144531 8.796875 13.171875 8.769531 13.203125 8.738281 C 13.234375 8.707031 13.265625 8.675781 13.296875 8.644531 C 13.332031 8.613281 13.363281 8.582031 13.394531 8.550781 C 13.621094 8.328125 13.847656 8.121094 14.101562 7.929688 C 14.125 7.914062 14.144531 7.894531 14.167969 7.878906 C 15.46875 6.890625 16.976562 6.234375 18.59375 5.976562 C 18.621094 5.972656 18.648438 5.96875 18.679688 5.960938 C 20.605469 5.664062 22.671875 6.035156 24.382812 6.953125 Z M 14.296875 9.6875 C 14.265625 9.71875 14.234375 9.746094 14.203125 9.777344 C 13.980469 9.992188 13.785156 10.226562 13.59375 10.46875 C 13.570312 10.5 13.542969 10.535156 13.515625 10.566406 C 12.203125 12.316406 11.691406 14.480469 11.992188 16.640625 C 12.28125 18.636719 13.359375 20.550781 14.980469 21.769531 C 15.816406 22.386719 16.699219 22.855469 17.699219 23.140625 C 17.769531 23.164062 17.839844 23.183594 17.914062 23.207031 C 18.339844 23.332031 18.777344 23.386719 19.21875 23.4375 C 19.269531 23.441406 19.269531 23.441406 19.316406 23.449219 C 20.34375 23.558594 21.402344 23.4375 22.382812 23.125 C 22.414062 23.117188 22.445312 23.105469 22.476562 23.097656 C 24.53125 22.453125 26.230469 21.015625 27.242188 19.117188 C 27.492188 18.628906 27.679688 18.121094 27.835938 17.59375 C 27.84375 17.570312 27.851562 17.542969 27.859375 17.519531 C 27.984375 17.089844 28.066406 16.664062 28.113281 16.21875 C 28.117188 16.171875 28.121094 16.128906 28.128906 16.082031 C 28.1875 15.519531 28.171875 14.980469 28.097656 14.421875 C 28.09375 14.394531 28.089844 14.367188 28.085938 14.339844 C 28.03125 13.898438 27.949219 13.472656 27.8125 13.046875 C 27.800781 13.007812 27.800781 13.007812 27.789062 12.964844 C 27.421875 11.785156 26.769531 10.753906 25.917969 9.867188 C 25.878906 9.824219 25.839844 9.785156 25.804688 9.746094 C 24.640625 8.5 22.929688 7.664062 21.25 7.421875 C 21.222656 7.417969 21.195312 7.414062 21.167969 7.410156 C 18.617188 7.050781 16.140625 7.925781 14.296875 9.6875 Z M 14.296875 9.6875 "/>
<path style=" stroke:none;fill-rule:nonzero;fill:rgb(13.725491%,20%,24.705882%);fill-opacity:1;" d="M 15.578125 26.554688 C 15.609375 26.554688 15.640625 26.554688 15.671875 26.554688 C 15.773438 26.554688 15.878906 26.554688 15.980469 26.554688 C 16.015625 26.554688 16.054688 26.554688 16.089844 26.550781 C 16.277344 26.550781 16.464844 26.550781 16.652344 26.550781 C 16.84375 26.550781 17.039062 26.550781 17.230469 26.546875 C 17.382812 26.546875 17.53125 26.546875 17.679688 26.546875 C 17.75 26.546875 17.820312 26.546875 17.894531 26.542969 C 17.992188 26.542969 18.09375 26.542969 18.191406 26.542969 C 18.222656 26.542969 18.25 26.542969 18.28125 26.542969 C 18.542969 26.546875 18.675781 26.644531 18.855469 26.824219 C 18.886719 26.863281 18.921875 26.902344 18.957031 26.941406 C 18.992188 26.980469 19.023438 27.015625 19.058594 27.054688 C 19.078125 27.078125 19.097656 27.097656 19.113281 27.121094 C 19.179688 27.191406 19.179688 27.191406 19.265625 27.257812 C 19.457031 27.417969 19.554688 27.539062 19.574219 27.789062 C 19.578125 27.890625 19.574219 27.988281 19.574219 28.085938 C 19.574219 28.140625 19.574219 28.195312 19.574219 28.25 C 19.578125 28.394531 19.574219 28.542969 19.574219 28.691406 C 19.570312 28.84375 19.570312 28.996094 19.574219 29.152344 C 19.574219 29.410156 19.570312 29.667969 19.570312 29.925781 C 19.566406 30.226562 19.566406 30.523438 19.566406 30.824219 C 19.566406 31.109375 19.566406 31.398438 19.5625 31.6875 C 19.5625 31.808594 19.5625 31.929688 19.5625 32.054688 C 19.5625 32.195312 19.5625 32.339844 19.558594 32.484375 C 19.558594 32.5625 19.558594 32.640625 19.558594 32.71875 C 19.558594 32.765625 19.558594 32.8125 19.558594 32.859375 C 19.558594 32.917969 19.558594 32.917969 19.554688 32.980469 C 19.523438 33.125 19.457031 33.164062 19.335938 33.242188 C 19.179688 33.273438 19.023438 33.265625 18.867188 33.265625 C 18.824219 33.265625 18.78125 33.265625 18.738281 33.265625 C 18.679688 33.265625 18.679688 33.265625 18.617188 33.265625 C 18.558594 33.265625 18.558594 33.265625 18.503906 33.265625 C 18.347656 33.230469 18.296875 33.179688 18.203125 33.046875 C 18.175781 32.910156 18.179688 32.773438 18.183594 32.632812 C 18.183594 32.597656 18.183594 32.566406 18.183594 32.527344 C 18.1875 32.398438 18.1875 32.265625 18.191406 32.136719 C 18.195312 31.84375 18.199219 31.550781 18.203125 31.25 C 17.328125 31.25 16.449219 31.25 15.546875 31.25 C 15.554688 31.832031 15.554688 31.832031 15.566406 32.414062 C 15.566406 32.488281 15.566406 32.5625 15.566406 32.632812 C 15.566406 32.691406 15.566406 32.691406 15.570312 32.75 C 15.570312 32.929688 15.566406 33.019531 15.460938 33.167969 C 15.339844 33.25 15.277344 33.265625 15.132812 33.265625 C 15.09375 33.265625 15.050781 33.265625 15.007812 33.265625 C 14.964844 33.265625 14.925781 33.265625 14.878906 33.265625 C 14.835938 33.265625 14.796875 33.265625 14.75 33.265625 C 14.4375 33.261719 14.4375 33.261719 14.324219 33.167969 C 14.21875 33.039062 14.214844 32.960938 14.210938 32.796875 C 14.210938 32.75 14.210938 32.707031 14.210938 32.660156 C 14.210938 32.609375 14.210938 32.558594 14.210938 32.507812 C 14.210938 32.457031 14.210938 32.402344 14.207031 32.351562 C 14.207031 32.179688 14.207031 32.003906 14.207031 31.832031 C 14.207031 31.800781 14.203125 31.773438 14.203125 31.742188 C 14.203125 31.464844 14.203125 31.1875 14.203125 30.910156 C 14.199219 30.554688 14.199219 30.199219 14.195312 29.84375 C 14.191406 29.59375 14.191406 29.34375 14.191406 29.09375 C 14.191406 28.945312 14.191406 28.796875 14.1875 28.644531 C 14.1875 28.503906 14.1875 28.363281 14.1875 28.226562 C 14.1875 28.148438 14.1875 28.074219 14.183594 27.996094 C 14.1875 27.765625 14.195312 27.613281 14.351562 27.433594 C 14.398438 27.390625 14.445312 27.347656 14.492188 27.304688 C 14.523438 27.273438 14.554688 27.238281 14.585938 27.207031 C 14.613281 27.175781 14.640625 27.148438 14.671875 27.121094 C 14.699219 27.089844 14.730469 27.0625 14.761719 27.027344 C 14.792969 27 14.824219 26.96875 14.855469 26.9375 C 14.886719 26.902344 14.917969 26.871094 14.953125 26.839844 C 14.980469 26.808594 15.011719 26.78125 15.042969 26.75 C 15.070312 26.722656 15.097656 26.695312 15.125 26.664062 C 15.261719 26.539062 15.398438 26.554688 15.578125 26.554688 Z M 15.578125 26.554688 "/>
<path style=" stroke:none;fill-rule:nonzero;fill:rgb(13.725491%,20%,24.705882%);fill-opacity:1;" d="M 28.445312 26.519531 C 28.523438 26.519531 28.605469 26.519531 28.6875 26.519531 C 28.855469 26.519531 29.023438 26.523438 29.191406 26.523438 C 29.40625 26.527344 29.621094 26.527344 29.835938 26.53125 C 30.003906 26.53125 30.167969 26.53125 30.335938 26.53125 C 30.414062 26.53125 30.492188 26.535156 30.574219 26.535156 C 30.683594 26.535156 30.792969 26.535156 30.90625 26.539062 C 30.9375 26.539062 30.96875 26.539062 31.003906 26.539062 C 31.144531 26.542969 31.234375 26.550781 31.347656 26.636719 C 31.425781 26.75 31.425781 26.832031 31.425781 26.96875 C 31.425781 27.015625 31.425781 27.066406 31.425781 27.117188 C 31.425781 27.164062 31.425781 27.214844 31.421875 27.269531 C 31.421875 27.320312 31.425781 27.367188 31.425781 27.421875 C 31.421875 27.789062 31.421875 27.789062 31.367188 27.878906 C 31.246094 27.960938 31.117188 27.945312 30.972656 27.945312 C 30.941406 27.945312 30.910156 27.949219 30.878906 27.949219 C 30.773438 27.949219 30.664062 27.949219 30.558594 27.949219 C 30.488281 27.949219 30.414062 27.949219 30.339844 27.953125 C 30.144531 27.953125 29.953125 27.953125 29.761719 27.957031 C 29.5625 27.957031 29.367188 27.957031 29.167969 27.960938 C 28.78125 27.964844 28.394531 27.964844 28.007812 27.96875 C 28.027344 28.53125 28.027344 28.53125 28.046875 29.101562 C 28.132812 29.097656 28.214844 29.09375 28.300781 29.089844 C 28.582031 29.078125 28.863281 29.074219 29.144531 29.070312 C 29.316406 29.066406 29.488281 29.0625 29.65625 29.054688 C 30.890625 29 30.890625 29 31.335938 29.402344 C 31.914062 29.960938 31.914062 29.960938 31.925781 30.316406 C 31.925781 30.359375 31.925781 30.402344 31.925781 30.445312 C 31.929688 30.636719 31.933594 30.828125 31.9375 31.023438 C 31.9375 31.121094 31.941406 31.222656 31.941406 31.324219 C 31.945312 31.472656 31.949219 31.617188 31.949219 31.765625 C 31.953125 31.808594 31.953125 31.855469 31.953125 31.898438 C 31.953125 32.152344 31.925781 32.285156 31.742188 32.464844 C 31.683594 32.515625 31.625 32.566406 31.5625 32.617188 C 31.527344 32.652344 31.492188 32.6875 31.453125 32.726562 C 31.394531 32.785156 31.332031 32.847656 31.265625 32.910156 C 31.171875 33.007812 31.171875 33.007812 31.089844 33.117188 C 31.015625 33.203125 31.015625 33.203125 30.898438 33.242188 C 30.84375 33.246094 30.789062 33.246094 30.734375 33.246094 C 30.6875 33.246094 30.6875 33.246094 30.636719 33.25 C 30.597656 33.25 30.5625 33.25 30.527344 33.25 C 30.488281 33.25 30.449219 33.25 30.410156 33.25 C 30.28125 33.25 30.15625 33.25 30.03125 33.25 C 29.941406 33.25 29.855469 33.25 29.765625 33.25 C 29.582031 33.25 29.398438 33.25 29.210938 33.25 C 28.976562 33.25 28.738281 33.253906 28.503906 33.253906 C 28.320312 33.253906 28.140625 33.253906 27.957031 33.253906 C 27.871094 33.253906 27.785156 33.253906 27.695312 33.253906 C 27.574219 33.257812 27.453125 33.257812 27.332031 33.257812 C 27.296875 33.257812 27.257812 33.257812 27.222656 33.257812 C 26.980469 33.253906 26.980469 33.253906 26.851562 33.191406 C 26.765625 33.089844 26.777344 33 26.777344 32.871094 C 26.777344 32.820312 26.777344 32.769531 26.777344 32.71875 C 26.777344 32.679688 26.777344 32.679688 26.777344 32.636719 C 26.777344 32.558594 26.777344 32.480469 26.777344 32.398438 C 26.777344 32.347656 26.777344 32.300781 26.777344 32.246094 C 26.777344 32.203125 26.777344 32.15625 26.777344 32.109375 C 26.796875 31.992188 26.796875 31.992188 26.855469 31.925781 C 27 31.851562 27.140625 31.859375 27.300781 31.859375 C 27.335938 31.859375 27.371094 31.859375 27.40625 31.859375 C 27.523438 31.855469 27.636719 31.855469 27.753906 31.855469 C 27.832031 31.855469 27.914062 31.855469 27.992188 31.855469 C 28.207031 31.851562 28.417969 31.851562 28.628906 31.851562 C 28.964844 31.851562 29.304688 31.847656 29.644531 31.84375 C 29.761719 31.84375 29.878906 31.84375 30 31.84375 C 30.070312 31.84375 30.144531 31.84375 30.214844 31.84375 C 30.25 31.84375 30.28125 31.84375 30.316406 31.84375 C 30.460938 31.855469 30.460938 31.855469 30.585938 31.796875 C 30.589844 31.707031 30.589844 31.617188 30.589844 31.53125 C 30.589844 31.488281 30.589844 31.488281 30.589844 31.449219 C 30.589844 31.390625 30.589844 31.335938 30.589844 31.277344 C 30.589844 31.191406 30.589844 31.105469 30.589844 31.019531 C 30.589844 30.964844 30.589844 30.90625 30.589844 30.851562 C 30.589844 30.777344 30.589844 30.777344 30.589844 30.699219 C 30.597656 30.589844 30.597656 30.589844 30.546875 30.546875 C 30.453125 30.542969 30.363281 30.542969 30.269531 30.542969 C 30.242188 30.542969 30.210938 30.542969 30.183594 30.542969 C 30.121094 30.542969 30.054688 30.542969 29.992188 30.542969 C 29.859375 30.542969 29.722656 30.539062 29.589844 30.539062 C 29.339844 30.539062 29.089844 30.535156 28.839844 30.535156 C 28.664062 30.539062 28.492188 30.535156 28.316406 30.535156 C 28.253906 30.535156 28.1875 30.535156 28.121094 30.535156 C 28.027344 30.535156 27.933594 30.535156 27.839844 30.53125 C 27.8125 30.535156 27.785156 30.535156 27.757812 30.535156 C 27.539062 30.53125 27.453125 30.460938 27.304688 30.3125 C 27.257812 30.261719 27.214844 30.214844 27.171875 30.160156 C 27.058594 30.03125 26.941406 29.910156 26.816406 29.792969 C 26.699219 29.660156 26.667969 29.511719 26.664062 29.335938 C 26.660156 29.296875 26.660156 29.257812 26.65625 29.21875 C 26.652344 29.046875 26.648438 28.871094 26.644531 28.699219 C 26.640625 28.605469 26.636719 28.515625 26.632812 28.421875 C 26.59375 27.585938 26.59375 27.585938 26.859375 27.277344 C 26.949219 27.1875 27.042969 27.101562 27.148438 27.023438 C 27.230469 26.953125 27.230469 26.953125 27.304688 26.851562 C 27.617188 26.460938 27.984375 26.507812 28.445312 26.519531 Z M 28.445312 26.519531 "/>
<path style=" stroke:none;fill-rule:nonzero;fill:rgb(14.117648%,20.392157%,25.098041%);fill-opacity:1;" d="M 25.632812 14.691406 C 25.832031 14.796875 25.96875 14.929688 26.039062 15.15625 C 26.097656 15.445312 26.050781 15.683594 25.898438 15.9375 C 25.816406 16.050781 25.722656 16.148438 25.625 16.25 C 25.585938 16.292969 25.546875 16.335938 25.507812 16.375 C 25.390625 16.503906 25.273438 16.628906 25.152344 16.753906 C 25.078125 16.835938 25.003906 16.917969 24.929688 16.996094 C 24.621094 17.324219 24.3125 17.644531 23.992188 17.960938 C 23.835938 18.113281 23.6875 18.269531 23.546875 18.4375 C 23.394531 18.609375 23.222656 18.769531 23.058594 18.929688 C 22.929688 19.058594 22.804688 19.1875 22.6875 19.328125 C 22.46875 19.578125 22.222656 19.808594 21.984375 20.046875 C 21.765625 20.261719 21.550781 20.476562 21.351562 20.710938 C 21.238281 20.839844 21.117188 20.957031 20.996094 21.078125 C 20.972656 21.105469 20.945312 21.128906 20.921875 21.152344 C 20.425781 21.648438 20.425781 21.648438 20.109375 21.699219 C 19.652344 21.640625 19.335938 21.234375 19.050781 20.90625 C 18.902344 20.738281 18.746094 20.578125 18.589844 20.421875 C 18.5625 20.394531 18.535156 20.367188 18.507812 20.339844 C 18.394531 20.230469 18.285156 20.121094 18.175781 20.011719 C 18.089844 19.925781 18.007812 19.832031 17.925781 19.742188 C 17.695312 19.484375 17.449219 19.238281 17.199219 19 C 17.015625 18.8125 16.984375 18.636719 16.96875 18.382812 C 16.976562 18.121094 17.042969 17.960938 17.226562 17.773438 C 17.414062 17.605469 17.605469 17.496094 17.859375 17.492188 C 18.28125 17.527344 18.570312 17.789062 18.851562 18.082031 C 18.886719 18.121094 18.925781 18.15625 18.960938 18.195312 C 19.058594 18.292969 19.152344 18.390625 19.25 18.488281 C 19.347656 18.589844 19.445312 18.6875 19.542969 18.789062 C 19.734375 18.984375 19.925781 19.179688 20.117188 19.375 C 20.320312 19.207031 20.507812 19.027344 20.691406 18.84375 C 20.722656 18.8125 20.75 18.785156 20.78125 18.753906 C 20.84375 18.691406 20.90625 18.628906 20.96875 18.566406 C 21.066406 18.46875 21.164062 18.367188 21.261719 18.269531 C 21.507812 18.023438 21.753906 17.777344 22 17.53125 C 22.207031 17.324219 22.414062 17.117188 22.621094 16.90625 C 22.71875 16.8125 22.816406 16.714844 22.910156 16.617188 C 22.972656 16.554688 23.03125 16.496094 23.089844 16.4375 C 23.117188 16.410156 23.144531 16.382812 23.171875 16.355469 C 23.324219 16.203125 23.476562 16.058594 23.640625 15.921875 C 23.753906 15.824219 23.855469 15.714844 23.960938 15.609375 C 24.003906 15.5625 24.050781 15.515625 24.097656 15.46875 C 24.167969 15.398438 24.234375 15.328125 24.304688 15.253906 C 25.089844 14.449219 25.089844 14.449219 25.632812 14.691406 Z M 25.632812 14.691406 "/>
<path style=" stroke:none;fill-rule:nonzero;fill:rgb(8.235294%,40.392157%,67.843139%);fill-opacity:1;" d="M 24.804688 10.429688 C 24.960938 10.53125 25.085938 10.644531 25.15625 10.820312 C 25.195312 11.101562 25.132812 11.28125 24.964844 11.507812 C 24.808594 11.707031 24.808594 11.707031 24.726562 11.796875 C 24.699219 11.796875 24.675781 11.796875 24.648438 11.796875 C 24.640625 11.816406 24.632812 11.839844 24.621094 11.859375 C 24.554688 11.980469 24.460938 12.078125 24.367188 12.179688 C 24.328125 12.21875 24.289062 12.261719 24.25 12.304688 C 24.230469 12.324219 24.210938 12.34375 24.191406 12.367188 C 24.128906 12.433594 24.066406 12.503906 24.007812 12.574219 C 23.90625 12.691406 23.804688 12.804688 23.699219 12.914062 C 23.5 13.128906 23.308594 13.347656 23.125 13.578125 C 23.035156 13.683594 22.9375 13.78125 22.839844 13.882812 C 22.675781 14.039062 22.535156 14.21875 22.386719 14.390625 C 22.019531 14.824219 22.019531 14.824219 21.820312 15.015625 C 21.726562 15.109375 21.644531 15.207031 21.558594 15.304688 C 21.472656 15.40625 21.378906 15.503906 21.289062 15.605469 C 21.175781 15.726562 21.066406 15.851562 20.957031 15.976562 C 20.9375 16 20.914062 16.023438 20.890625 16.050781 C 20.835938 16.113281 20.78125 16.179688 20.726562 16.242188 C 20.496094 16.507812 20.308594 16.714844 19.945312 16.742188 C 19.539062 16.71875 19.261719 16.394531 18.984375 16.132812 C 18.726562 15.902344 18.460938 15.679688 18.199219 15.453125 C 18.125 15.390625 18.054688 15.332031 17.984375 15.269531 C 17.761719 15.082031 17.539062 14.890625 17.316406 14.699219 C 17.296875 14.683594 17.277344 14.664062 17.253906 14.648438 C 17.152344 14.558594 17.046875 14.472656 16.941406 14.390625 C 16.902344 14.359375 16.863281 14.328125 16.824219 14.292969 C 16.789062 14.265625 16.753906 14.238281 16.714844 14.210938 C 16.691406 14.1875 16.667969 14.164062 16.640625 14.140625 C 16.640625 14.113281 16.640625 14.089844 16.640625 14.0625 C 16.617188 14.050781 16.59375 14.042969 16.570312 14.03125 C 16.480469 13.984375 16.40625 13.933594 16.328125 13.867188 C 16.328125 13.839844 16.328125 13.816406 16.328125 13.789062 C 16.292969 13.773438 16.292969 13.773438 16.261719 13.757812 C 16.164062 13.707031 16.089844 13.648438 16.011719 13.578125 C 15.984375 13.554688 15.957031 13.535156 15.929688 13.511719 C 15.855469 13.433594 15.816406 13.378906 15.78125 13.28125 C 15.789062 13.050781 15.824219 12.914062 15.976562 12.734375 C 16.128906 12.621094 16.246094 12.597656 16.433594 12.59375 C 16.5 12.59375 16.5 12.59375 16.566406 12.589844 C 16.78125 12.628906 16.929688 12.730469 17.109375 12.851562 C 17.144531 12.875 17.175781 12.894531 17.210938 12.917969 C 17.324219 12.992188 17.433594 13.066406 17.542969 13.140625 C 17.914062 13.390625 18.285156 13.632812 18.664062 13.871094 C 18.867188 14 19.066406 14.128906 19.261719 14.265625 C 19.300781 14.289062 19.335938 14.316406 19.375 14.339844 C 19.445312 14.390625 19.519531 14.441406 19.589844 14.488281 C 19.636719 14.523438 19.636719 14.523438 19.683594 14.554688 C 19.710938 14.574219 19.738281 14.59375 19.765625 14.613281 C 19.84375 14.65625 19.84375 14.65625 19.925781 14.640625 C 20.058594 14.585938 20.148438 14.472656 20.242188 14.371094 C 20.402344 14.203125 20.566406 14.046875 20.738281 13.898438 C 20.878906 13.777344 21.011719 13.648438 21.148438 13.523438 C 21.175781 13.496094 21.207031 13.46875 21.234375 13.441406 C 21.421875 13.265625 21.605469 13.085938 21.78125 12.902344 C 21.886719 12.800781 21.996094 12.707031 22.105469 12.613281 C 22.242188 12.492188 22.375 12.367188 22.507812 12.242188 C 22.550781 12.199219 22.550781 12.199219 22.59375 12.160156 C 22.796875 11.96875 22.996094 11.773438 23.191406 11.574219 C 23.316406 11.445312 23.449219 11.328125 23.585938 11.210938 C 23.738281 11.074219 23.878906 10.925781 24.023438 10.78125 C 24.453125 10.34375 24.453125 10.34375 24.804688 10.429688 Z M 24.804688 10.429688 "/>
<path style=" stroke:none;fill-rule:nonzero;fill:rgb(13.725491%,20%,24.705882%);fill-opacity:1;" d="M 8.460938 26.539062 C 8.511719 26.535156 8.5625 26.535156 8.613281 26.535156 C 8.75 26.535156 8.890625 26.535156 9.027344 26.535156 C 9.171875 26.535156 9.316406 26.535156 9.460938 26.535156 C 9.703125 26.535156 9.945312 26.535156 10.191406 26.535156 C 10.46875 26.539062 10.75 26.539062 11.03125 26.535156 C 11.273438 26.535156 11.511719 26.535156 11.753906 26.535156 C 11.898438 26.535156 12.042969 26.535156 12.1875 26.535156 C 12.347656 26.535156 12.507812 26.535156 12.667969 26.539062 C 12.714844 26.535156 12.761719 26.535156 12.8125 26.535156 C 13.171875 26.539062 13.171875 26.539062 13.292969 26.65625 C 13.371094 26.777344 13.382812 26.847656 13.382812 26.992188 C 13.382812 27.039062 13.382812 27.082031 13.382812 27.128906 C 13.382812 27.175781 13.382812 27.21875 13.382812 27.269531 C 13.382812 27.3125 13.382812 27.359375 13.382812 27.410156 C 13.378906 27.742188 13.378906 27.742188 13.308594 27.855469 C 13.140625 27.972656 12.96875 27.949219 12.769531 27.945312 C 12.726562 27.945312 12.683594 27.945312 12.640625 27.945312 C 12.507812 27.945312 12.371094 27.941406 12.238281 27.941406 C 12.144531 27.9375 12.054688 27.9375 11.960938 27.9375 C 11.738281 27.9375 11.511719 27.933594 11.289062 27.929688 C 11.289062 27.957031 11.289062 27.980469 11.289062 28.007812 C 11.292969 28.644531 11.296875 29.285156 11.300781 29.921875 C 11.300781 30.230469 11.300781 30.539062 11.304688 30.847656 C 11.304688 31.113281 11.308594 31.382812 11.308594 31.652344 C 11.308594 31.792969 11.308594 31.9375 11.308594 32.078125 C 11.3125 32.238281 11.3125 32.394531 11.3125 32.554688 C 11.3125 32.601562 11.3125 32.648438 11.3125 32.699219 C 11.3125 33.050781 11.3125 33.050781 11.195312 33.171875 C 11.007812 33.300781 10.804688 33.273438 10.582031 33.269531 C 10.539062 33.269531 10.492188 33.269531 10.441406 33.273438 C 10.398438 33.273438 10.355469 33.273438 10.308594 33.273438 C 10.269531 33.273438 10.226562 33.273438 10.1875 33.273438 C 10.0625 33.238281 10.019531 33.195312 9.953125 33.089844 C 9.882812 32.90625 9.902344 32.707031 9.902344 32.515625 C 9.902344 32.464844 9.902344 32.414062 9.902344 32.363281 C 9.902344 32.230469 9.90625 32.09375 9.90625 31.957031 C 9.90625 31.816406 9.90625 31.675781 9.90625 31.535156 C 9.90625 31.265625 9.910156 30.996094 9.910156 30.730469 C 9.914062 30.425781 9.914062 30.117188 9.914062 29.8125 C 9.914062 29.183594 9.917969 28.558594 9.921875 27.929688 C 9.898438 27.929688 9.875 27.929688 9.847656 27.929688 C 9.597656 27.933594 9.347656 27.9375 9.097656 27.9375 C 9.003906 27.9375 8.910156 27.941406 8.816406 27.941406 C 8.679688 27.945312 8.546875 27.945312 8.410156 27.945312 C 8.347656 27.945312 8.347656 27.945312 8.285156 27.949219 C 8.226562 27.949219 8.226562 27.949219 8.164062 27.949219 C 8.132812 27.949219 8.097656 27.949219 8.0625 27.949219 C 7.9375 27.921875 7.890625 27.871094 7.8125 27.773438 C 7.792969 27.664062 7.792969 27.664062 7.792969 27.542969 C 7.792969 27.5 7.792969 27.453125 7.792969 27.410156 C 7.792969 27.363281 7.792969 27.316406 7.792969 27.269531 C 7.792969 27.222656 7.792969 27.175781 7.792969 27.128906 C 7.792969 27.082031 7.792969 27.039062 7.792969 26.992188 C 7.792969 26.953125 7.792969 26.914062 7.792969 26.871094 C 7.859375 26.492188 8.144531 26.535156 8.460938 26.539062 Z M 8.460938 26.539062 "/>
<path style=" stroke:none;fill-rule:nonzero;fill:rgb(14.117648%,20%,25.098041%);fill-opacity:1;" d="M 21.105469 26.542969 C 21.152344 26.542969 21.199219 26.542969 21.25 26.542969 C 21.382812 26.542969 21.515625 26.542969 21.648438 26.542969 C 21.789062 26.542969 21.925781 26.542969 22.066406 26.542969 C 22.300781 26.542969 22.535156 26.542969 22.765625 26.542969 C 23.039062 26.546875 23.308594 26.546875 23.578125 26.546875 C 23.835938 26.542969 24.097656 26.542969 24.355469 26.546875 C 24.46875 26.546875 24.578125 26.546875 24.6875 26.546875 C 24.84375 26.546875 24.996094 26.546875 25.152344 26.546875 C 25.195312 26.546875 25.242188 26.546875 25.289062 26.546875 C 25.332031 26.546875 25.375 26.546875 25.417969 26.546875 C 25.472656 26.546875 25.472656 26.546875 25.527344 26.546875 C 25.644531 26.566406 25.695312 26.597656 25.78125 26.679688 C 25.84375 26.867188 25.832031 27.0625 25.835938 27.261719 C 25.835938 27.324219 25.835938 27.324219 25.839844 27.390625 C 25.839844 27.429688 25.839844 27.472656 25.839844 27.515625 C 25.839844 27.550781 25.84375 27.589844 25.84375 27.628906 C 25.808594 27.785156 25.753906 27.832031 25.625 27.929688 C 25.484375 27.957031 25.347656 27.953125 25.203125 27.949219 C 25.164062 27.949219 25.125 27.949219 25.082031 27.949219 C 24.953125 27.945312 24.824219 27.945312 24.695312 27.941406 C 24.605469 27.941406 24.519531 27.941406 24.433594 27.9375 C 24.21875 27.9375 24.003906 27.933594 23.789062 27.929688 C 23.789062 27.957031 23.789062 27.980469 23.789062 28.007812 C 23.789062 28.628906 23.792969 29.253906 23.792969 29.875 C 23.792969 30.175781 23.792969 30.476562 23.796875 30.777344 C 23.796875 31.042969 23.796875 31.304688 23.796875 31.566406 C 23.796875 31.707031 23.796875 31.84375 23.796875 31.984375 C 23.796875 32.136719 23.796875 32.292969 23.796875 32.449219 C 23.796875 32.496094 23.796875 32.539062 23.796875 32.589844 C 23.796875 32.628906 23.796875 32.671875 23.796875 32.714844 C 23.796875 32.769531 23.796875 32.769531 23.796875 32.828125 C 23.785156 32.976562 23.75 33.089844 23.640625 33.195312 C 23.476562 33.285156 23.292969 33.261719 23.109375 33.257812 C 23.046875 33.261719 23.046875 33.261719 22.984375 33.261719 C 22.945312 33.261719 22.90625 33.261719 22.867188 33.261719 C 22.8125 33.261719 22.8125 33.261719 22.757812 33.261719 C 22.609375 33.234375 22.5625 33.203125 22.460938 33.085938 C 22.429688 32.921875 22.4375 32.761719 22.4375 32.59375 C 22.4375 32.542969 22.4375 32.496094 22.4375 32.441406 C 22.4375 32.304688 22.441406 32.167969 22.441406 32.027344 C 22.441406 31.886719 22.441406 31.742188 22.441406 31.597656 C 22.441406 31.324219 22.445312 31.050781 22.445312 30.777344 C 22.449219 30.46875 22.449219 30.15625 22.449219 29.847656 C 22.453125 29.207031 22.457031 28.570312 22.460938 27.929688 C 22.4375 27.929688 22.414062 27.929688 22.390625 27.929688 C 22.148438 27.933594 21.910156 27.9375 21.667969 27.9375 C 21.578125 27.9375 21.488281 27.941406 21.398438 27.941406 C 21.269531 27.945312 21.140625 27.945312 21.011719 27.945312 C 20.972656 27.945312 20.929688 27.945312 20.890625 27.949219 C 20.613281 27.949219 20.613281 27.949219 20.484375 27.859375 C 20.371094 27.675781 20.40625 27.453125 20.40625 27.246094 C 20.40625 27.199219 20.40625 27.148438 20.40625 27.101562 C 20.40625 27.054688 20.40625 27.007812 20.40625 26.960938 C 20.40625 26.917969 20.40625 26.875 20.40625 26.832031 C 20.429688 26.71875 20.429688 26.71875 20.5 26.636719 C 20.695312 26.523438 20.882812 26.542969 21.105469 26.542969 Z M 21.105469 26.542969 "/>
<path style=" stroke:none;fill-rule:nonzero;fill:rgb(98.039216%,98.039216%,98.431373%);fill-opacity:1;" d="M 15.828125 27.925781 C 15.878906 27.925781 15.929688 27.925781 15.984375 27.925781 C 16.039062 27.925781 16.097656 27.925781 16.152344 27.925781 C 16.210938 27.925781 16.269531 27.925781 16.324219 27.925781 C 16.445312 27.925781 16.566406 27.925781 16.6875 27.925781 C 16.84375 27.925781 17 27.925781 17.15625 27.925781 C 17.273438 27.925781 17.394531 27.925781 17.511719 27.925781 C 17.570312 27.925781 17.625 27.925781 17.683594 27.925781 C 17.761719 27.925781 17.84375 27.925781 17.921875 27.925781 C 17.992188 27.925781 17.992188 27.925781 18.0625 27.925781 C 18.164062 27.929688 18.164062 27.929688 18.203125 27.96875 C 18.207031 28.027344 18.207031 28.089844 18.207031 28.148438 C 18.207031 28.1875 18.207031 28.226562 18.207031 28.265625 C 18.207031 28.328125 18.207031 28.328125 18.207031 28.390625 C 18.207031 28.433594 18.207031 28.472656 18.207031 28.519531 C 18.207031 28.609375 18.207031 28.699219 18.207031 28.789062 C 18.207031 28.925781 18.207031 29.0625 18.207031 29.199219 C 18.207031 29.289062 18.207031 29.375 18.207031 29.460938 C 18.207031 29.503906 18.207031 29.542969 18.207031 29.585938 C 18.207031 29.644531 18.207031 29.644531 18.207031 29.703125 C 18.207031 29.738281 18.207031 29.769531 18.207031 29.804688 C 18.203125 29.882812 18.203125 29.882812 18.164062 29.921875 C 18.082031 29.925781 18.003906 29.925781 17.921875 29.925781 C 17.871094 29.925781 17.820312 29.925781 17.765625 29.925781 C 17.710938 29.925781 17.652344 29.925781 17.597656 29.925781 C 17.539062 29.925781 17.480469 29.925781 17.425781 29.925781 C 17.304688 29.925781 17.183594 29.925781 17.0625 29.925781 C 16.90625 29.925781 16.75 29.925781 16.59375 29.925781 C 16.476562 29.925781 16.355469 29.925781 16.238281 29.925781 C 16.179688 29.925781 16.125 29.925781 16.066406 29.925781 C 15.988281 29.925781 15.90625 29.925781 15.828125 29.925781 C 15.757812 29.925781 15.757812 29.925781 15.6875 29.925781 C 15.585938 29.921875 15.585938 29.921875 15.546875 29.882812 C 15.542969 29.824219 15.542969 29.761719 15.542969 29.703125 C 15.542969 29.664062 15.542969 29.625 15.542969 29.585938 C 15.542969 29.546875 15.542969 29.503906 15.542969 29.460938 C 15.542969 29.417969 15.542969 29.378906 15.542969 29.332031 C 15.542969 29.242188 15.542969 29.152344 15.542969 29.0625 C 15.542969 28.925781 15.542969 28.789062 15.542969 28.652344 C 15.542969 28.5625 15.542969 28.476562 15.542969 28.390625 C 15.542969 28.347656 15.542969 28.308594 15.542969 28.265625 C 15.542969 28.226562 15.542969 28.1875 15.542969 28.148438 C 15.542969 28.113281 15.542969 28.082031 15.542969 28.046875 C 15.554688 27.878906 15.6875 27.925781 15.828125 27.925781 Z M 15.828125 27.925781 "/>
<path style=" stroke:none;fill-rule:nonzero;fill:rgb(14.509805%,52.156866%,76.47059%);fill-opacity:1;" d="M 20.15625 8.164062 C 20.269531 8.199219 20.304688 8.230469 20.375 8.324219 C 20.445312 8.464844 20.445312 8.566406 20.445312 8.722656 C 20.445312 8.75 20.445312 8.777344 20.445312 8.804688 C 20.445312 8.863281 20.445312 8.917969 20.445312 8.976562 C 20.445312 9.0625 20.445312 9.148438 20.445312 9.234375 C 20.445312 9.289062 20.445312 9.347656 20.445312 9.402344 C 20.445312 9.453125 20.445312 9.503906 20.445312 9.554688 C 20.429688 9.695312 20.398438 9.769531 20.3125 9.882812 C 20.183594 9.953125 20.070312 9.984375 19.921875 9.960938 C 19.808594 9.886719 19.710938 9.808594 19.648438 9.6875 C 19.640625 9.511719 19.640625 9.335938 19.640625 9.160156 C 19.640625 9.070312 19.636719 8.984375 19.636719 8.894531 C 19.636719 8.839844 19.636719 8.785156 19.636719 8.726562 C 19.636719 8.675781 19.636719 8.625 19.632812 8.574219 C 19.648438 8.429688 19.675781 8.355469 19.765625 8.242188 C 19.910156 8.144531 19.984375 8.152344 20.15625 8.164062 Z M 20.15625 8.164062 "/>
<path style=" stroke:none;fill-rule:nonzero;fill:rgb(14.901961%,52.549022%,76.47059%);fill-opacity:1;" d="M 13.492188 14.953125 C 13.558594 14.949219 13.558594 14.949219 13.625 14.949219 C 13.691406 14.949219 13.691406 14.949219 13.753906 14.949219 C 13.796875 14.949219 13.835938 14.949219 13.875 14.945312 C 14.035156 14.96875 14.136719 15.035156 14.25 15.144531 C 14.320312 15.277344 14.328125 15.402344 14.296875 15.546875 C 14.210938 15.652344 14.144531 15.722656 14.023438 15.78125 C 13.851562 15.792969 13.679688 15.792969 13.507812 15.792969 C 13.457031 15.792969 13.410156 15.796875 13.359375 15.796875 C 12.921875 15.800781 12.921875 15.800781 12.734375 15.625 C 12.652344 15.519531 12.65625 15.46875 12.660156 15.335938 C 12.703125 15.167969 12.757812 15.105469 12.890625 15 C 13.085938 14.933594 13.289062 14.953125 13.492188 14.953125 Z M 13.492188 14.953125 "/>
<path style=" stroke:none;fill-rule:nonzero;fill:rgb(13.725491%,51.372552%,75.686276%);fill-opacity:1;" d="M 16.40625 9.21875 C 16.585938 9.367188 16.707031 9.558594 16.832031 9.757812 C 16.851562 9.785156 16.871094 9.816406 16.890625 9.847656 C 17.011719 10.039062 17.050781 10.167969 17.015625 10.394531 C 16.972656 10.527344 16.914062 10.585938 16.796875 10.664062 C 16.636719 10.699219 16.53125 10.691406 16.390625 10.605469 C 16.257812 10.476562 16.175781 10.332031 16.085938 10.171875 C 16.066406 10.144531 16.050781 10.113281 16.03125 10.082031 C 15.90625 9.867188 15.835938 9.710938 15.859375 9.453125 C 15.996094 9.242188 16.152344 9.15625 16.40625 9.21875 Z M 16.40625 9.21875 "/>
<path style=" stroke:none;fill-rule:nonzero;fill:rgb(7.843138%,39.215687%,67.058825%);fill-opacity:1;" d="M 14.816406 18.519531 C 14.941406 18.585938 14.984375 18.664062 15.039062 18.789062 C 15.0625 18.910156 15.0625 18.910156 15.039062 19.023438 C 14.902344 19.179688 14.746094 19.292969 14.570312 19.402344 C 14.546875 19.417969 14.523438 19.433594 14.5 19.449219 C 14.371094 19.53125 14.246094 19.605469 14.101562 19.648438 C 13.933594 19.59375 13.851562 19.5625 13.75 19.414062 C 13.734375 19.332031 13.734375 19.332031 13.734375 19.242188 C 13.730469 19.199219 13.730469 19.199219 13.726562 19.15625 C 13.777344 18.949219 13.984375 18.832031 14.152344 18.722656 C 14.582031 18.460938 14.582031 18.460938 14.816406 18.519531 Z M 14.816406 18.519531 "/>
<path style=" stroke:none;fill-rule:nonzero;fill:rgb(13.725491%,51.372552%,75.686276%);fill-opacity:1;" d="M 14.179688 11.445312 C 14.300781 11.496094 14.410156 11.5625 14.519531 11.632812 C 14.5625 11.65625 14.5625 11.65625 14.609375 11.683594 C 14.886719 11.847656 14.886719 11.847656 14.960938 11.992188 C 14.984375 12.183594 14.988281 12.261719 14.886719 12.421875 C 14.722656 12.527344 14.601562 12.527344 14.414062 12.5 C 14.292969 12.453125 14.191406 12.386719 14.085938 12.3125 C 14.058594 12.296875 14.03125 12.28125 14.003906 12.261719 C 13.871094 12.175781 13.75 12.097656 13.671875 11.953125 C 13.652344 11.820312 13.652344 11.820312 13.671875 11.679688 C 13.828125 11.488281 13.933594 11.417969 14.179688 11.445312 Z M 14.179688 11.445312 "/>
<path style=" stroke:none;fill-rule:nonzero;fill:rgb(20.392157%,54.901963%,77.64706%);fill-opacity:1;" d="M 13.007812 14.960938 C 13.328125 14.960938 13.652344 14.960938 13.984375 14.960938 C 13.984375 15 13.984375 15.039062 13.984375 15.078125 C 13.648438 15.078125 13.3125 15.078125 12.96875 15.078125 C 12.980469 15.039062 12.996094 15 13.007812 14.960938 Z M 13.007812 14.960938 "/>
<path style=" stroke:none;fill-rule:nonzero;fill:rgb(3.137255%,31.37255%,63.137257%);fill-opacity:1;" d="M 13.632812 8.320312 C 13.660156 8.332031 13.683594 8.347656 13.710938 8.359375 C 13.625 8.457031 13.539062 8.550781 13.449219 8.648438 C 13.414062 8.6875 13.414062 8.6875 13.375 8.730469 C 13.148438 8.976562 13.148438 8.976562 12.96875 9.023438 C 13.175781 8.773438 13.402344 8.546875 13.632812 8.320312 Z M 13.632812 8.320312 "/>
<path style=" stroke:none;fill-rule:nonzero;fill:rgb(92.54902%,92.941177%,93.333334%);fill-opacity:1;" d="M 30.585938 30.585938 C 30.597656 30.585938 30.613281 30.585938 30.625 30.585938 C 30.625 30.984375 30.625 31.386719 30.625 31.796875 C 30.546875 31.835938 30.546875 31.835938 30.46875 31.875 C 30.480469 31.855469 30.492188 31.835938 30.507812 31.8125 C 30.558594 31.691406 30.558594 31.589844 30.5625 31.457031 C 30.566406 31.378906 30.566406 31.378906 30.566406 31.300781 C 30.570312 31.25 30.570312 31.195312 30.570312 31.140625 C 30.574219 31.089844 30.574219 31.035156 30.574219 30.980469 C 30.578125 30.847656 30.582031 30.71875 30.585938 30.585938 Z M 30.585938 30.585938 "/>
<path style=" stroke:none;fill-rule:nonzero;fill:rgb(10.980392%,14.509805%,18.431373%);fill-opacity:1;" d="M 23.710938 15.859375 C 23.710938 15.976562 23.710938 15.976562 23.648438 16.050781 C 23.375 16.320312 23.375 16.320312 23.203125 16.40625 C 23.265625 16.25 23.375 16.152344 23.5 16.046875 C 23.519531 16.027344 23.542969 16.007812 23.5625 15.992188 C 23.613281 15.945312 23.660156 15.902344 23.710938 15.859375 Z M 23.710938 15.859375 "/>
<path style=" stroke:none;fill-rule:nonzero;fill:rgb(4.313726%,32.549021%,63.529414%);fill-opacity:1;" d="M 10.820312 12.929688 C 10.871094 13.074219 10.851562 13.183594 10.824219 13.328125 C 10.816406 13.371094 10.808594 13.414062 10.800781 13.457031 C 10.792969 13.488281 10.789062 13.523438 10.78125 13.554688 C 10.753906 13.542969 10.730469 13.527344 10.703125 13.515625 C 10.71875 13.308594 10.746094 13.125 10.820312 12.929688 Z M 10.820312 12.929688 "/>
<path style=" stroke:none;fill-rule:nonzero;fill:rgb(6.27451%,34.509805%,64.313728%);fill-opacity:1;" d="M 10.976562 12.421875 C 11.003906 12.433594 11.027344 12.449219 11.054688 12.460938 C 11.042969 12.488281 11.03125 12.515625 11.019531 12.542969 C 10.976562 12.660156 10.9375 12.773438 10.898438 12.890625 C 10.855469 12.761719 10.863281 12.691406 10.914062 12.570312 C 10.925781 12.539062 10.9375 12.511719 10.949219 12.484375 C 10.957031 12.464844 10.96875 12.441406 10.976562 12.421875 Z M 10.976562 12.421875 "/>
</g>
</svg>
